<?xml version="1.0" encoding="UTF-8" standalone="no"?>
<svg
   xmlns:dc="http://purl.org/dc/elements/1.1/"
   xmlns:cc="http://creativecommons.org/ns#"
   xmlns:rdf="http://www.w3.org/1999/02/22-rdf-syntax-ns#"
   xmlns:svg="http://www.w3.org/2000/svg"
   xmlns="http://www.w3.org/2000/svg"
   xmlns:xlink="http://www.w3.org/1999/xlink"
   xmlns:sodipodi="http://sodipodi.sourceforge.net/DTD/sodipodi-0.dtd"
   xmlns:inkscape="http://www.inkscape.org/namespaces/inkscape"
   id="Layer_1"
   data-name="Layer 1"
   viewBox="0 0 100 100"
   version="1.1"
   sodipodi:docname="nordvpn-black.svg"
   inkscape:version="0.92.3 (2405546, 2018-03-11)">
  <metadata
     id="metadata3815">
    <rdf:RDF>
      <cc:Work
         rdf:about="">
        <dc:format>image/svg+xml</dc:format>
        <dc:type
           rdf:resource="http://purl.org/dc/dcmitype/StillImage" />
        <dc:title>171012_NordVPN</dc:title>
      </cc:Work>
    </rdf:RDF>
  </metadata>
  <sodipodi:namedview
     pagecolor="#ffffff"
     bordercolor="#666666"
     borderopacity="1"
     objecttolerance="10"
     gridtolerance="10"
     guidetolerance="10"
     inkscape:pageopacity="0"
     inkscape:pageshadow="2"
     inkscape:window-width="1920"
     inkscape:window-height="1052"
     id="namedview3813"
     showgrid="false"
     inkscape:zoom="8.57"
     inkscape:cx="0.058342903"
     inkscape:cy="49.303438"
     inkscape:window-x="0"
     inkscape:window-y="0"
     inkscape:window-maximized="1"
     inkscape:current-layer="layer1"
     inkscape:pagecheckerboard="true">
    <inkscape:grid
       type="xygrid"
       id="grid12" />
  </sodipodi:namedview>
  <defs
     id="defs3794">
    <linearGradient
       inkscape:collect="always"
       id="linearGradient874">
      <stop
         style="stop-color:#2d2d2d;stop-opacity:0.80784315"
         offset="0"
         id="stop870" />
      <stop
         style="stop-color:#111111;stop-opacity:0.82745099"
         offset="1"
         id="stop872" />
    </linearGradient>
    <style
       id="style3792">.cls-1{fill:#17537c;}</style>
    <linearGradient
       inkscape:collect="always"
       xlink:href="#linearGradient874"
       id="linearGradient876"
       x1="47.024502"
       y1="26.954489"
       x2="46.324383"
       y2="73.395569"
       gradientUnits="userSpaceOnUse"
       gradientTransform="matrix(0.93975903,0,0,0.93975903,5.4513784,2.021622)" />
  </defs>
  <title
     id="title3796">171012_NordVPN</title>
  <g
     id="Elements"
     transform="translate(1.6336056,-0.11668612)">
    <g
       id="Logo"
       transform="matrix(0.93975903,0,0,0.93975903,3.8177728,2.1383081)">
      <g
         inkscape:groupmode="layer"
         id="layer1"
         inkscape:label="Layer 1">
        <path
           style="fill:url(#linearGradient876);fill-opacity:1;stroke-width:1.11111116"
           d="M 50.191406 4.4335938 A 45.507583 45.507583 0 0 0 4.6835938 49.941406 A 45.507583 45.507583 0 0 0 50.191406 95.449219 A 45.507583 45.507583 0 0 0 95.699219 49.941406 A 45.507583 45.507583 0 0 0 50.191406 4.4335938 z M 50.300781 12 A 38.05092 38.05092 0 0 1 88.351562 50.050781 A 38.05092 38.05092 0 0 1 80.279297 73.412109 L 66.882812 43.916016 L 61.660156 53.236328 L 48.716797 22.417969 L 40.503906 41.933594 L 36.673828 35.912109 L 19.996094 73.009766 A 38.05092 38.05092 0 0 1 12.25 50.050781 A 38.05092 38.05092 0 0 1 50.300781 12 z "
           transform="matrix(1.0641026,0,0,1.0641026,-5.8008258,-2.1512131)"
           id="path4532" />
      </g>
    </g>
  </g>
</svg>
